<svg viewBox="0 0 576 512" xmlns="http://www.w3.org/2000/svg" xmlns:xlink="http://www.w3.org/1999/xlink" overflow="hidden"><path d="M280.37 148.26 96 300.11 96 464C96 472.837 103.163 480 112 480L224.06 479.71C232.865 479.666 239.98 472.515 239.98 463.71L239.98 368C239.98 359.163 247.143 352 255.98 352L319.98 352C328.817 352 335.98 359.163 335.98 368L335.98 463.64C335.952 472.477 343.093 479.662 351.93 479.69 351.947 479.69 351.963 479.69 351.98 479.69L464 480C472.837 480 480 472.837 480 464L480 300 295.67 148.26C291.205 144.661 284.835 144.661 280.37 148.26ZM571.6 251.47 488 182.56 488 44.05C488 37.4226 482.627 32.05 476 32.05L420 32.05C413.373 32.05 408 37.4226 408 44.05L408 116.66 318.47 43C300.751 28.4188 275.189 28.4188 257.47 43L4.34 251.47C-0.768373 255.692-1.48674 263.256 2.73549 268.365 2.73699 268.366 2.73849 268.368 2.74 268.37L28.24 299.37C32.4497 304.489 40.0118 305.226 45.1305 301.016 45.137 301.011 45.1435 301.005 45.15 301L280.37 107.26C284.835 103.661 291.205 103.661 295.67 107.26L530.9 301C536.006 305.225 543.57 304.511 547.796 299.405 547.797 299.404 547.799 299.402 547.8 299.4L573.3 268.4C577.508 263.28 576.769 255.718 571.649 251.51 571.633 251.497 571.616 251.483 571.6 251.47Z" stroke="#000000" stroke-width="1.33333" fill="#FFFFFF"/></svg>